<?xml version="1.0" encoding="utf-8"?>
<!-- Generator: Adobe Illustrator 17.1.0, SVG Export Plug-In . SVG Version: 6.00 Build 0)  -->
<!DOCTYPE svg PUBLIC "-//W3C//DTD SVG 1.1//EN" "http://www.w3.org/Graphics/SVG/1.1/DTD/svg11.dtd">
<svg version="1.1" id="Layer_1" xmlns="http://www.w3.org/2000/svg" xmlns:xlink="http://www.w3.org/1999/xlink" x="0px" y="0px"
	 viewBox="0 0 75 75" enable-background="new 0 0 75 75" xml:space="preserve">
<g>
	<g>
		<g>
			<linearGradient id="SVGID_1_" gradientUnits="userSpaceOnUse" x1="37.9708" y1="69.8214" x2="37.9708" y2="7.1215">
				<stop  offset="0" style="stop-color:#2E6FAA"/>
				<stop  offset="1" style="stop-color:#73ABDE"/>
			</linearGradient>
			<path fill-rule="evenodd" clip-rule="evenodd" fill="url(#SVGID_1_)" d="M37.971,7.122c17.314,0,31.35,14.036,31.35,31.35
				c0,17.314-14.036,31.35-31.35,31.35s-31.35-14.036-31.35-31.35C6.621,21.157,20.657,7.122,37.971,7.122L37.971,7.122z"/>
			<linearGradient id="SVGID_2_" gradientUnits="userSpaceOnUse" x1="37.9708" y1="38.4647" x2="37.9708" y2="7.8293">
				<stop  offset="0" style="stop-color:#000000"/>
				<stop  offset="1" style="stop-color:#00FF9D"/>
			</linearGradient>
			<path opacity="0.75" fill="url(#SVGID_2_)" d="M7.39,36.528c0.481-7.687,3.797-14.607,8.914-19.724
				c5.545-5.545,13.206-8.975,21.667-8.975s16.122,3.43,21.667,8.975c5.117,5.117,8.433,12.037,8.914,19.724
				c0.151,2.414-3.527,2.662-3.68,0.229c-0.424-6.761-3.341-12.846-7.841-17.346c-4.878-4.878-11.617-7.895-19.06-7.895
				s-14.182,3.017-19.06,7.895c-4.5,4.5-7.417,10.585-7.841,17.346C10.917,39.19,7.238,38.942,7.39,36.528L7.39,36.528z"/>
			<path fill-rule="evenodd" clip-rule="evenodd" fill="#85EDED" d="M57.377,57.878c-0.655,0.656-1.423,1.016-1.971,0.978
				c-10.256,8.709-25.888,8-35.854-1.966c-9.547-9.547-10.598-24.294-3.013-34.533c-0.478-0.871,0.119-2.504,1.466-3.85
				c1.346-1.345,2.977-1.943,3.849-1.467c0.935-0.692,1.907-1.313,2.91-1.861c0.12-0.542,0.735-1.172,1.609-1.58
				c0.932-0.435,1.871-0.481,2.339-0.161c9.269-3.182,20.108-0.954,27.678,6.616c9.966,9.966,10.675,25.597,1.966,35.854
				C58.393,56.454,58.032,57.222,57.377,57.878L57.377,57.878z"/>
			<linearGradient id="SVGID_3_" gradientUnits="userSpaceOnUse" x1="37.9708" y1="64.7191" x2="37.9708" y2="12.2239">
				<stop  offset="0" style="stop-color:#84C4FF"/>
				<stop  offset="1" style="stop-color:#0C355C"/>
			</linearGradient>
			<path fill-rule="evenodd" clip-rule="evenodd" fill="url(#SVGID_3_)" d="M37.971,12.224c14.496,0,26.247,11.751,26.247,26.248
				S52.467,64.719,37.971,64.719c-14.496,0-26.247-11.751-26.247-26.247S23.475,12.224,37.971,12.224L37.971,12.224z"/>
			<radialGradient id="SVGID_4_" cx="37.971" cy="38.4715" r="23.9143" gradientUnits="userSpaceOnUse">
				<stop  offset="0" style="stop-color:#412D73"/>
				<stop  offset="1" style="stop-color:#25094F"/>
			</radialGradient>
			<path fill-rule="evenodd" clip-rule="evenodd" fill="url(#SVGID_4_)" d="M37.971,14.557c13.208,0,23.914,10.707,23.914,23.915
				c0,13.208-10.707,23.914-23.914,23.914S14.057,51.679,14.057,38.472C14.057,25.264,24.763,14.557,37.971,14.557L37.971,14.557z"
				/>
			<linearGradient id="SVGID_5_" gradientUnits="userSpaceOnUse" x1="37.9708" y1="69.8214" x2="37.9708" y2="23.4917">
				<stop  offset="0" style="stop-color:#074675"/>
				<stop  offset="1" style="stop-color:#FFFFFF"/>
			</linearGradient>
			<path opacity="0.75" fill-rule="evenodd" clip-rule="evenodd" fill="url(#SVGID_5_)" d="M69.055,37.65
				c0,16.861-13.917,30.529-31.084,30.529S6.887,54.511,6.887,37.65c0-5.11,1.278-9.927,3.538-14.158
				c-2.425,4.451-3.803,9.554-3.803,14.98c0,17.314,14.036,31.35,31.35,31.35s31.35-14.036,31.35-31.35
				c0-5.426-1.378-10.529-3.803-14.98C67.777,27.724,69.055,32.54,69.055,37.65L69.055,37.65z"/>
		</g>
	</g>
	<g>
		<g>
			<linearGradient id="SVGID_6_" gradientUnits="userSpaceOnUse" x1="37.971" y1="42.9269" x2="37.971" y2="12.1986">
				<stop  offset="0" style="stop-color:#E86900"/>
				<stop  offset="1" style="stop-color:#FC8F00"/>
			</linearGradient>
			<path fill-rule="evenodd" clip-rule="evenodd" fill="url(#SVGID_6_)" d="M53.877,12.199c-2.135,0-3.865,1.731-3.865,3.865
				c0,1.532,0.891,2.856,2.184,3.481c-0.921,3.536-3.219,7.739-5.488,10.627c-2.365,3.011-5.551,4.516-8.737,4.516
				c-3.185,0-6.371-1.505-8.736-4.516c-2.269-2.888-4.568-7.09-5.488-10.627c1.292-0.625,2.184-1.949,2.184-3.481
				c0-2.135-1.731-3.865-3.865-3.865c-2.135,0-3.865,1.731-3.865,3.865c0,1.878,1.339,3.442,3.114,3.792
				c-0.073,4.532-2.271,12.078-6.012,14.353l2.366,8.719h20.303h20.303l2.366-8.719c-3.741-2.274-5.94-9.82-6.012-14.353
				c1.775-0.35,3.114-1.914,3.114-3.792C57.742,13.929,56.011,12.199,53.877,12.199L53.877,12.199z"/>
			<radialGradient id="SVGID_7_" cx="38.1214" cy="4.822" r="37.2816" gradientUnits="userSpaceOnUse">
				<stop  offset="0.5149" style="stop-color:#FFFFFF"/>
				<stop  offset="0.6459" style="stop-color:#F8E1C3"/>
				<stop  offset="0.9472" style="stop-color:#E6962D"/>
				<stop  offset="1" style="stop-color:#E38812"/>
			</radialGradient>
			<path fill-rule="evenodd" clip-rule="evenodd" fill="url(#SVGID_7_)" d="M57.115,29.868c-2.972,0.535-6.627-2.066-6.692-5.687
				c-1.063,2.182-2.395,4.31-3.716,5.991c-2.365,3.011-5.551,4.516-8.736,4.516c-3.186,0-6.371-1.505-8.737-4.516
				c-1.321-1.682-2.652-3.809-3.716-5.991c-0.065,3.621-3.72,6.223-6.692,5.687c-0.938,1.896-2.123,3.489-3.525,4.341l2.366,8.719
				h20.303h20.303l2.366-8.719C59.238,33.356,58.053,31.764,57.115,29.868L57.115,29.868z"/>
			<linearGradient id="SVGID_8_" gradientUnits="userSpaceOnUse" x1="7.892" y1="18.431" x2="13.3311" y2="18.431">
				<stop  offset="0" style="stop-color:#ED8E00"/>
				<stop  offset="1" style="stop-color:#FFCB30"/>
			</linearGradient>
			<path fill-rule="evenodd" clip-rule="evenodd" fill="url(#SVGID_8_)" d="M7.892,16.738c0.009-0.305,0.278-0.701,0.661-0.793
				c0.995-0.059,1.96,0.22,2.755,0.755c0.873,0.588,1.751,1.642,2.023,3.243l-3.956,0.983L7.892,16.738L7.892,16.738z"/>
			<linearGradient id="SVGID_9_" gradientUnits="userSpaceOnUse" x1="37.971" y1="8.9668" x2="37.971" y2="2.6774">
				<stop  offset="0" style="stop-color:#ED8E00"/>
				<stop  offset="1" style="stop-color:#FFCB30"/>
			</linearGradient>
			<path fill-rule="evenodd" clip-rule="evenodd" fill="url(#SVGID_9_)" d="M37.971,2.677c-2.973,0-5.382,2.41-5.382,5.383v0.907
				h5.382h5.383V8.06C43.353,5.087,40.944,2.677,37.971,2.677L37.971,2.677z"/>
			<linearGradient id="SVGID_10_" gradientUnits="userSpaceOnUse" x1="62.6106" y1="18.431" x2="68.0496" y2="18.431">
				<stop  offset="0" style="stop-color:#ED8E00"/>
				<stop  offset="1" style="stop-color:#FFCB30"/>
			</linearGradient>
			<path fill-rule="evenodd" clip-rule="evenodd" fill="url(#SVGID_10_)" d="M68.05,16.738c-0.009-0.305-0.278-0.701-0.661-0.793
				c-0.995-0.059-1.96,0.22-2.755,0.755c-0.873,0.588-1.751,1.642-2.023,3.243l3.956,0.983L68.05,16.738L68.05,16.738z"/>
			<linearGradient id="SVGID_11_" gradientUnits="userSpaceOnUse" x1="14.8748" y1="49.8198" x2="61.0668" y2="49.8198">
				<stop  offset="0.052" style="stop-color:#ED9500"/>
				<stop  offset="0.4033" style="stop-color:#FFCC00"/>
				<stop  offset="0.9257" style="stop-color:#B36600"/>
			</linearGradient>
			<path fill-rule="evenodd" clip-rule="evenodd" fill="url(#SVGID_11_)" d="M61.067,42.984v6.56c0,0.424-0.1,0.788-0.317,1.153
				c-1.991,3.344-11.318,5.959-22.779,5.959c-11.461,0-20.788-2.615-22.779-5.959c-0.217-0.365-0.317-0.729-0.317-1.153v-6.56
				C17.152,51.792,58.79,51.792,61.067,42.984L61.067,42.984z"/>
			<linearGradient id="SVGID_12_" gradientUnits="userSpaceOnUse" x1="7.892" y1="27.0178" x2="68.0496" y2="27.0178">
				<stop  offset="0.052" style="stop-color:#ED9500"/>
				<stop  offset="0.4033" style="stop-color:#FFCC00"/>
				<stop  offset="0.9257" style="stop-color:#B36600"/>
			</linearGradient>
			<path fill-rule="evenodd" clip-rule="evenodd" fill="url(#SVGID_12_)" d="M37.971,3.584c2.973,0,5.383,2.41,5.383,5.382
				c0,2.202-1.322,4.095-3.216,4.929c1.503,6.799,4.525,15.695,11.149,17.806c5.652,1.801,10.92-3.038,12.613-7.366
				c-1.164-1.08-1.714-2.748-1.289-4.394c0.617-2.387,3.052-3.821,5.439-3.204c-2.9,8.812-5.371,18.149-6.983,27.009
				c-0.683,3.752-10.797,6.704-23.096,6.704s-22.413-2.952-23.096-6.704c-1.612-8.86-4.082-18.197-6.983-27.009
				c2.387-0.617,4.822,0.818,5.439,3.204c0.426,1.646-0.124,3.314-1.289,4.394c1.693,4.328,6.961,9.167,12.613,7.366
				c6.624-2.111,9.646-11.007,11.149-17.806c-1.894-0.834-3.216-2.726-3.216-4.929C32.588,5.994,34.998,3.584,37.971,3.584
				L37.971,3.584z"/>
			<linearGradient id="SVGID_13_" gradientUnits="userSpaceOnUse" x1="7.892" y1="32.1205" x2="19.5517" y2="32.1205">
				<stop  offset="1.100000e-007" style="stop-color:#FFA163"/>
				<stop  offset="1" style="stop-color:#FFFFFF"/>
			</linearGradient>
			<path fill-rule="evenodd" clip-rule="evenodd" fill="url(#SVGID_13_)" d="M19.552,47.646c-1.117-6.358-2.433-12.45-3.932-18.299
				c-1.634-1.442-2.895-3.268-3.577-5.011c1.164-1.08,1.714-2.748,1.289-4.394c-0.617-2.387-3.052-3.821-5.439-3.204
				c2.9,8.812,5.371,18.149,6.983,27.009C15.141,45.211,16.844,46.553,19.552,47.646L19.552,47.646z"/>
			<linearGradient id="SVGID_14_" gradientUnits="userSpaceOnUse" x1="52.4756" y1="32.7383" x2="68.0496" y2="32.7383">
				<stop  offset="1.100000e-007" style="stop-color:#FFFFFF"/>
				<stop  offset="1" style="stop-color:#FFA163"/>
			</linearGradient>
			<path fill-rule="evenodd" clip-rule="evenodd" fill="url(#SVGID_14_)" d="M55.408,31.918c-1.168,5.528-2.147,11.181-2.933,16.964
				c4.796-1.187,8.024-2.95,8.551-4.956c0.002-0.007,0.004-0.015,0.006-0.022c0.013-0.052,0.025-0.104,0.034-0.157
				c1.612-8.86,4.082-18.197,6.983-27.009l0,0c-2.387-0.617-4.822,0.818-5.439,3.204c-0.425,1.646,0.124,3.314,1.289,4.394
				C62.63,27.58,59.352,31.112,55.408,31.918L55.408,31.918z"/>
			<radialGradient id="SVGID_15_" cx="22.6171" cy="29.4586" r="25.305" gradientUnits="userSpaceOnUse">
				<stop  offset="0" style="stop-color:#FFF0B0"/>
				<stop  offset="1" style="stop-color:#000000"/>
			</radialGradient>
			<path fill-rule="evenodd" clip-rule="evenodd" fill="url(#SVGID_15_)" d="M30.795,50.103c-0.346-7.108-0.941-14.155-1.796-21.136
				c-1.242,1.246-2.679,2.204-4.343,2.735c-1.416,0.451-2.807,0.486-4.124,0.216c1.311,5.584,2.233,11.246,2.908,16.957
				C25.605,49.413,28.092,49.832,30.795,50.103L30.795,50.103z"/>
			<radialGradient id="SVGID_16_" cx="15.7025" cy="27.438" r="38.9888" gradientUnits="userSpaceOnUse">
				<stop  offset="0" style="stop-color:#FFF0B0"/>
				<stop  offset="1" style="stop-color:#000000"/>
			</radialGradient>
			<path fill-rule="evenodd" clip-rule="evenodd" fill="url(#SVGID_16_)" d="M42.129,20.813c-0.775,9.859-1.243,19.719-1.127,29.578
				c2.165-0.087,4.237-0.266,6.173-0.524c0.542-6.351,1.204-12.701,2.128-19.052C45.933,28.841,43.672,24.952,42.129,20.813
				L42.129,20.813z"/>
			<linearGradient id="SVGID_17_" gradientUnits="userSpaceOnUse" x1="40.1371" y1="23.7418" x2="63.8999" y2="23.7418">
				<stop  offset="0" style="stop-color:#ED8E00"/>
				<stop  offset="1" style="stop-color:#FFCB30"/>
			</linearGradient>
			<path fill-rule="evenodd" clip-rule="evenodd" fill="url(#SVGID_17_)" d="M51.286,31.702c5.652,1.801,10.92-3.038,12.614-7.365
				c-0.905,3.465-3.482,7.673-7.829,8.848c-10.875,2.941-15.428-10.907-15.934-19.289C41.641,20.695,44.662,29.59,51.286,31.702
				L51.286,31.702z"/>
			<linearGradient id="SVGID_18_" gradientUnits="userSpaceOnUse" x1="12.042" y1="23.7418" x2="35.8048" y2="23.7418">
				<stop  offset="0" style="stop-color:#FFCB30"/>
				<stop  offset="1" style="stop-color:#ED8E00"/>
			</linearGradient>
			<path fill-rule="evenodd" clip-rule="evenodd" fill="url(#SVGID_18_)" d="M24.656,31.702c-5.652,1.801-10.921-3.038-12.614-7.365
				c0.905,3.465,3.481,7.673,7.829,8.848c10.875,2.941,15.428-10.907,15.934-19.289C34.301,20.695,31.28,29.59,24.656,31.702
				L24.656,31.702z"/>
			<linearGradient id="SVGID_19_" gradientUnits="userSpaceOnUse" x1="14.8748" y1="48.7618" x2="19.5517" y2="48.7618">
				<stop  offset="1.100000e-007" style="stop-color:#FFA163"/>
				<stop  offset="1" style="stop-color:#FFFFFF"/>
			</linearGradient>
			<path fill-rule="evenodd" clip-rule="evenodd" fill="url(#SVGID_19_)" d="M19.552,53.776v-6.13
				c-2.708-1.093-4.41-2.435-4.677-3.899v5.796c0,0.424,0.1,0.788,0.317,1.153C15.868,51.832,17.389,52.883,19.552,53.776
				L19.552,53.776z"/>
			<radialGradient id="SVGID_20_" cx="23.1521" cy="48.1604" r="18.1428" gradientUnits="userSpaceOnUse">
				<stop  offset="0" style="stop-color:#FFF0B0"/>
				<stop  offset="1" style="stop-color:#000000"/>
			</radialGradient>
			<path opacity="0.75" fill-rule="evenodd" clip-rule="evenodd" fill="url(#SVGID_20_)" d="M23.44,48.875v6.162
				c2.16,0.551,4.644,0.983,7.356,1.262v-6.196C28.092,49.832,25.605,49.413,23.44,48.875L23.44,48.875z"/>
			<radialGradient id="SVGID_21_" cx="34.9264" cy="53.888" r="13.2576" gradientUnits="userSpaceOnUse">
				<stop  offset="0" style="stop-color:#FFF0B0"/>
				<stop  offset="1" style="stop-color:#000000"/>
			</radialGradient>
			<path opacity="0.75" fill-rule="evenodd" clip-rule="evenodd" fill="url(#SVGID_21_)" d="M41.002,50.391v6.203
				c2.171-0.089,4.243-0.273,6.173-0.538v-6.19C45.239,50.125,43.167,50.304,41.002,50.391L41.002,50.391z"/>
			<linearGradient id="SVGID_22_" gradientUnits="userSpaceOnUse" x1="52.4756" y1="49.3956" x2="61.0668" y2="49.3956">
				<stop  offset="1.100000e-007" style="stop-color:#FFFFFF"/>
				<stop  offset="1" style="stop-color:#FFA163"/>
			</linearGradient>
			<path fill-rule="evenodd" clip-rule="evenodd" fill="url(#SVGID_22_)" d="M52.476,48.882v6.162
				c4.244-1.079,7.243-2.615,8.274-4.347c0.217-0.365,0.317-0.729,0.317-1.153v-5.796C60.689,45.826,57.414,47.66,52.476,48.882
				L52.476,48.882z"/>
			<radialGradient id="SVGID_23_" cx="37.8043" cy="48.4632" r="34.3733" gradientUnits="userSpaceOnUse">
				<stop  offset="0" style="stop-color:#FFF0B0"/>
				<stop  offset="1" style="stop-color:#000000"/>
			</radialGradient>
			<path opacity="0.65" fill-rule="evenodd" clip-rule="evenodd" fill="url(#SVGID_23_)" d="M59.293,45.983
				c-3.414,2.625-11.769,4.469-21.489,4.469c-9.719,0-18.074-1.844-21.488-4.469c3.058,2.893,11.545,4.961,21.488,4.961
				C47.747,50.944,56.235,48.876,59.293,45.983L59.293,45.983z"/>
			<radialGradient id="SVGID_24_" cx="37.2507" cy="10.3494" r="11.0364" gradientUnits="userSpaceOnUse">
				<stop  offset="1.100000e-007" style="stop-color:#FFA163"/>
				<stop  offset="1" style="stop-color:#FFFFFF"/>
			</radialGradient>
			<path fill-rule="evenodd" clip-rule="evenodd" fill="url(#SVGID_24_)" d="M37.971,14.349c-0.771,0-1.504-0.162-2.166-0.454
				c-0.073,0.329-0.149,0.664-0.23,1.002c0.92,0.732,2.084,1.17,3.35,1.17c0.581,0,1.14-0.092,1.664-0.262
				c-0.164-0.65-0.315-1.289-0.452-1.91C39.475,14.187,38.742,14.349,37.971,14.349L37.971,14.349z"/>
			<polygon fill-rule="evenodd" clip-rule="evenodd" fill="#BE8954" points="30.516,33.386 37.971,29.654 45.426,33.386 
				44.411,46.174 37.971,48.002 31.531,46.174 30.516,33.386 			"/>
			<polygon fill-rule="evenodd" clip-rule="evenodd" fill="#E6E6E6" points="31.479,33.93 37.971,30.68 44.463,33.932 
				43.547,45.463 37.971,47.049 32.394,45.466 31.479,33.93 			"/>
			<radialGradient id="SVGID_25_" cx="36.2089" cy="33.6626" r="15.0846" gradientUnits="userSpaceOnUse">
				<stop  offset="0" style="stop-color:#FF8AAF"/>
				<stop  offset="1" style="stop-color:#D7001E"/>
			</radialGradient>
			<polygon fill-rule="evenodd" clip-rule="evenodd" fill="url(#SVGID_25_)" points="33.726,35.197 34.41,43.813 37.97,44.824 
				41.532,43.812 42.216,35.199 37.97,33.073 33.726,35.197 			"/>
			<radialGradient id="SVGID_26_" cx="29.8443" cy="34.4517" r="24.9669" gradientUnits="userSpaceOnUse">
				<stop  offset="0" style="stop-color:#FF8480"/>
				<stop  offset="1" style="stop-color:#F50022"/>
			</radialGradient>
			<polygon fill-rule="evenodd" clip-rule="evenodd" fill="url(#SVGID_26_)" points="32.394,45.466 34.41,43.813 33.726,35.197 
				31.479,33.93 32.394,45.466 			"/>
			<radialGradient id="SVGID_27_" cx="33.3736" cy="27.7721" r="11.4122" gradientUnits="userSpaceOnUse">
				<stop  offset="0" style="stop-color:#FFE3E3"/>
				<stop  offset="1" style="stop-color:#FF8A91"/>
			</radialGradient>
			<polygon fill-rule="evenodd" clip-rule="evenodd" fill="url(#SVGID_27_)" points="33.726,35.197 37.971,33.073 37.971,30.68 
				31.479,33.93 33.726,35.197 			"/>
			<radialGradient id="SVGID_28_" cx="32.2416" cy="53.6185" r="10.7884" gradientUnits="userSpaceOnUse">
				<stop  offset="0" style="stop-color:#EB716D"/>
				<stop  offset="0.2714" style="stop-color:#E35252"/>
				<stop  offset="1" style="stop-color:#CF0008"/>
			</radialGradient>
			<polygon fill-rule="evenodd" clip-rule="evenodd" fill="url(#SVGID_28_)" points="37.97,44.824 34.41,43.813 32.394,45.466 
				37.971,47.049 37.97,44.824 			"/>
			<radialGradient id="SVGID_29_" cx="37.7505" cy="34.2927" r="12.5811" gradientUnits="userSpaceOnUse">
				<stop  offset="0" style="stop-color:#EB716D"/>
				<stop  offset="1" style="stop-color:#CF0008"/>
			</radialGradient>
			<polygon fill-rule="evenodd" clip-rule="evenodd" fill="url(#SVGID_29_)" points="43.547,45.466 41.531,43.813 42.215,35.197 
				44.462,33.93 43.547,45.466 			"/>
			<radialGradient id="SVGID_30_" cx="38.9112" cy="30.1567" r="18.9956" gradientUnits="userSpaceOnUse">
				<stop  offset="0" style="stop-color:#FF8480"/>
				<stop  offset="1" style="stop-color:#F50022"/>
			</radialGradient>
			<polygon fill-rule="evenodd" clip-rule="evenodd" fill="url(#SVGID_30_)" points="42.215,35.197 37.97,33.073 37.97,30.68 
				44.462,33.93 42.215,35.197 			"/>
			<radialGradient id="SVGID_31_" cx="37.4201" cy="35.8923" r="12.4959" gradientUnits="userSpaceOnUse">
				<stop  offset="0" style="stop-color:#FFE3E3"/>
				<stop  offset="1" style="stop-color:#FF8A91"/>
			</radialGradient>
			<polygon fill-rule="evenodd" clip-rule="evenodd" fill="url(#SVGID_31_)" points="37.971,44.824 41.531,43.813 43.547,45.466 
				37.97,47.049 37.971,44.824 			"/>
			<path opacity="0.65" fill-rule="evenodd" clip-rule="evenodd" fill="#FFFFFF" d="M35.784,33.683
				c-1.209,0.653-2.931,1.022-4.305,0.247l2.247,1.268l4.245-2.125V30.68C37.97,31.949,36.935,33.061,35.784,33.683L35.784,33.683z"
				/>
			<path opacity="0.45" fill-rule="evenodd" clip-rule="evenodd" fill="#FFFFFF" d="M39.524,44.735
				c1.605-0.53,3.353,0.183,4.021,0.729l-2.014-1.651l-3.56,1.011l0,1.283v0.398C37.978,45.672,38.376,45.114,39.524,44.735
				L39.524,44.735z"/>
			<linearGradient id="SVGID_32_" gradientUnits="userSpaceOnUse" x1="30.5161" y1="31.7918" x2="37.9708" y2="31.7918">
				<stop  offset="0" style="stop-color:#F5D36C"/>
				<stop  offset="1" style="stop-color:#FFF5B0"/>
			</linearGradient>
			<polygon fill-rule="evenodd" clip-rule="evenodd" fill="url(#SVGID_32_)" points="31.479,33.93 37.971,30.68 37.971,29.654 
				30.516,33.386 31.479,33.93 			"/>
			<linearGradient id="SVGID_33_" gradientUnits="userSpaceOnUse" x1="31.4552" y1="46.1738" x2="31.4552" y2="33.386">
				<stop  offset="0" style="stop-color:#ED8E00"/>
				<stop  offset="1" style="stop-color:#FFCB30"/>
			</linearGradient>
			<polygon fill-rule="evenodd" clip-rule="evenodd" fill="url(#SVGID_33_)" points="32.394,45.466 31.479,33.93 30.516,33.386 
				31.531,46.174 32.394,45.466 			"/>
			<linearGradient id="SVGID_34_" gradientUnits="userSpaceOnUse" x1="31.5307" y1="46.7337" x2="37.9708" y2="46.7337">
				<stop  offset="0" style="stop-color:#A34900"/>
				<stop  offset="1" style="stop-color:#F09C00"/>
			</linearGradient>
			<polygon fill-rule="evenodd" clip-rule="evenodd" fill="url(#SVGID_34_)" points="37.971,47.049 32.394,45.466 31.531,46.174 
				37.971,48.002 37.971,47.049 			"/>
			<linearGradient id="SVGID_35_" gradientUnits="userSpaceOnUse" x1="37.9703" y1="31.7918" x2="45.4253" y2="31.7918">
				<stop  offset="0" style="stop-color:#F09C00"/>
				<stop  offset="1" style="stop-color:#A34900"/>
			</linearGradient>
			<polygon fill-rule="evenodd" clip-rule="evenodd" fill="url(#SVGID_35_)" points="44.463,33.93 37.97,30.68 37.97,29.654 
				45.425,33.386 44.463,33.93 			"/>
			<linearGradient id="SVGID_36_" gradientUnits="userSpaceOnUse" x1="44.4862" y1="46.1738" x2="44.4862" y2="33.386">
				<stop  offset="0" style="stop-color:#A34900"/>
				<stop  offset="1" style="stop-color:#F09C00"/>
			</linearGradient>
			<polygon fill-rule="evenodd" clip-rule="evenodd" fill="url(#SVGID_36_)" points="43.547,45.466 44.463,33.93 45.425,33.386 
				44.411,46.174 43.547,45.466 			"/>
			<linearGradient id="SVGID_37_" gradientUnits="userSpaceOnUse" x1="37.9703" y1="46.7337" x2="44.4105" y2="46.7337">
				<stop  offset="0" style="stop-color:#FFBF00"/>
				<stop  offset="1" style="stop-color:#DB6A00"/>
			</linearGradient>
			<polygon fill-rule="evenodd" clip-rule="evenodd" fill="url(#SVGID_37_)" points="37.971,47.049 43.547,45.466 44.411,46.174 
				37.97,48.002 37.971,47.049 			"/>
			<path opacity="0.7" fill-rule="evenodd" clip-rule="evenodd" fill="#FFFCE3" d="M30.943,33.172
				c2.112-0.056,5.275-1.597,6.585-3.296L30.943,33.172L30.943,33.172z"/>
			<g>
				<radialGradient id="SVGID_38_" cx="36.2491" cy="7.4962" r="7.3427" gradientUnits="userSpaceOnUse">
					<stop  offset="0" style="stop-color:#FCCD10"/>
					<stop  offset="0.2207" style="stop-color:#EDAB09"/>
					<stop  offset="0.4492" style="stop-color:#E08E02"/>
					<stop  offset="0.5799" style="stop-color:#DB8300"/>
					<stop  offset="0.7066" style="stop-color:#D67D00"/>
					<stop  offset="0.8778" style="stop-color:#C86C00"/>
					<stop  offset="1" style="stop-color:#BA5B00"/>
				</radialGradient>
				<path fill-rule="evenodd" clip-rule="evenodd" fill="url(#SVGID_38_)" d="M37.971,3.584c2.973,0,5.383,2.41,5.383,5.383
					s-2.41,5.382-5.383,5.382c-2.973,0-5.383-2.41-5.383-5.382S34.998,3.584,37.971,3.584L37.971,3.584z"/>
				<radialGradient id="SVGID_39_" cx="34.5726" cy="5.1721" r="8.9381" gradientUnits="userSpaceOnUse">
					<stop  offset="0" style="stop-color:#FFE58A"/>
					<stop  offset="1" style="stop-color:#000000"/>
				</radialGradient>
				<path fill-rule="evenodd" clip-rule="evenodd" fill="url(#SVGID_39_)" d="M37.371,4.289c2.271,0,4.112,1.841,4.112,4.112
					s-1.841,4.112-4.112,4.112c-2.271,0-4.112-1.841-4.112-4.112S35.1,4.289,37.371,4.289L37.371,4.289z"/>
				<radialGradient id="SVGID_40_" cx="32.6835" cy="3.3289" r="8.8227" gradientUnits="userSpaceOnUse">
					<stop  offset="0" style="stop-color:#FFE58A"/>
					<stop  offset="1" style="stop-color:#000000"/>
				</radialGradient>
				<path fill-rule="evenodd" clip-rule="evenodd" fill="url(#SVGID_40_)" d="M34.888,5.748c1.206-1.206,2.932-1.436,3.854-0.514
					c0.922,0.922,0.692,2.648-0.514,3.854c-1.206,1.206-2.932,1.436-3.854,0.514C33.451,8.68,33.681,6.954,34.888,5.748
					L34.888,5.748z"/>
				<radialGradient id="SVGID_41_" cx="38.2661" cy="8.0415" r="8.4743" gradientUnits="userSpaceOnUse">
					<stop  offset="0" style="stop-color:#FFE58A"/>
					<stop  offset="1" style="stop-color:#000000"/>
				</radialGradient>
				<path fill-rule="evenodd" clip-rule="evenodd" fill="url(#SVGID_41_)" d="M40.404,4.615c1.39,0.878,2.314,2.427,2.314,4.193
					c0,2.737-2.219,4.956-4.956,4.956c-0.743,0-1.448-0.164-2.081-0.457c0.383,0.091,0.782,0.14,1.192,0.14
					c2.829,0,5.122-2.293,5.122-5.122C41.994,6.865,41.383,5.548,40.404,4.615L40.404,4.615z"/>
			</g>
		</g>
		<radialGradient id="SVGID_42_" cx="35.6804" cy="34.0434" r="6.7813" gradientUnits="userSpaceOnUse">
			<stop  offset="7.000000e-008" style="stop-color:#FF8854"/>
			<stop  offset="0.0669" style="stop-color:#E1784A"/>
			<stop  offset="0.2125" style="stop-color:#A65937"/>
			<stop  offset="0.3578" style="stop-color:#743E26"/>
			<stop  offset="0.4995" style="stop-color:#4A2718"/>
			<stop  offset="0.6368" style="stop-color:#2A160E"/>
			<stop  offset="0.7686" style="stop-color:#130A06"/>
			<stop  offset="0.8923" style="stop-color:#050302"/>
			<stop  offset="1" style="stop-color:#000000"/>
		</radialGradient>
		<circle fill-rule="evenodd" clip-rule="evenodd" fill="url(#SVGID_42_)" cx="35.68" cy="34.044" r="6.781"/>
	</g>
</g>
</svg>
