<?xml version="1.0" encoding="UTF-8" standalone="no"?>
<svg
   id="Layer_1"
   data-name="Layer 1"
   viewBox="0 0 453.42817 79.739994"
   version="1.1"
   width="453.42819"
   height="79.739998"
   xmlns="http://www.w3.org/2000/svg"
   xmlns:svg="http://www.w3.org/2000/svg">
  <defs
     id="defs4">
    <style
       id="style2">.cls-1{fill:#fff;}</style>
  </defs>
  <path
     class="cls-1"
     d="M 227.99,70.83 A 31.14,31.14 0 0 1 197.73,45.99 c -3.7,-17.54 9.38,-35.3 27.29,-36.72 1,-0.08 2,-0.24 3,-0.36 l -0.08,-0.09 v 8.7 a 24.07,24.07 0 0 1 16.04,6.31 c 4.5,4.21 7.44,9.41 7.13,15.65 -0.7,14.43 -9.6,21 -23.19,22.88 v 8.53 z M 227.86,18 a 22,22 0 0 0 -21.82,23 c 0.55,11.59 10.72,21.25 21.8,20.7 v -8.09 c -8.11,-1.51 -13.17,-6.54 -13.35,-13.2 -0.2,-7.39 4.38,-12.37 13.37,-14.44 z m 0.35,34.81 c 7.1,0.51 14,-5.8 14.16,-12.74 0.16,-6.94 -6.52,-13.45 -14.28,-13.36 0,2 0,4.09 0,6.14 0,1.32 0,2.23 -1.73,2.71 a 4.12,4.12 0 0 0 -2.92,4.21 4.61,4.61 0 0 0 2.82,4.35 18.4,18.4 0 0 0 1.94,0.73 z"
     id="path6" />
  <path
     class="cls-1"
     d="M 228,8.91 V 0 c 15,0.51 26.56,6.73 34.12,19.25 8.12,13.44 8.14,27.51 0.11,41 -7.53,12.64 -19.12,19 -34.24,19.49 v -8.91 l -0.07,0.08 a 53.29,53.29 0 0 0 6,-0.61 c 23.09,-4.87 32,-30.54 19.57,-48.19 C 247.24,13.33 238.52,9.26 227.92,8.83 Z"
     id="path8" />
  <path
     class="cls-1"
     d="m 307.2,52.62 a 12.13,12.13 0 0 1 -5.37,3.52 22.33,22.33 0 0 1 -7.68,1.26 15.19,15.19 0 0 1 -7.77,-1.94 12.89,12.89 0 0 1 -5.16,-5.63 19.76,19.76 0 0 1 -1.86,-8.65 v -2.32 a 21,21 0 0 1 1.72,-8.85 12.77,12.77 0 0 1 5,-5.71 14.22,14.22 0 0 1 7.6,-2 q 6.08,0 9.5,2.9 3.42,2.9 4.05,8.43 h -6.84 a 6.77,6.77 0 0 0 -2.08,-4.29 6.59,6.59 0 0 0 -4.41,-1.36 6.26,6.26 0 0 0 -5.47,2.69 q -1.87,2.7 -1.89,8 v 2.18 q 0,5.37 2,8.11 a 7,7 0 0 0 6,2.74 c 2.64,0 4.53,-0.56 5.65,-1.69 v -5.88 h -6.4 v -5.18 h 13.43 z"
     id="path10" />
  <path
     class="cls-1"
     d="m 335.76,49.9 h -12.33 l -2.34,7 h -7.48 l 12.71,-34.07 h 6.51 l 12.78,34.13 h -7.48 z m -10.43,-5.7 h 8.53 l -4.29,-12.77 z"
     id="path12" />
  <path
     class="cls-1"
     d="m 361.58,22.83 8.77,24.75 8.71,-24.75 h 9.24 v 34.1 h -7.06 V 47.6 l 0.71,-16.1 -9.21,25.43 h -4.83 l -9.19,-25.41 0.7,16.08 v 9.33 h -7 v -34.1 z"
     id="path14" />
  <path
     class="cls-1"
     d="m 418.57,42.14 h -13.5 v 9.14 h 15.85 v 5.65 h -22.88 v -34.1 h 22.83 v 5.7 h -15.8 v 8.13 h 13.5 z"
     id="path16" />
  <path
     class="cls-1"
     d="m 446.34,47.98 a 3.6,3.6 0 0 0 -1.41,-3.06 18.63,18.63 0 0 0 -5.06,-2.25 35.35,35.35 0 0 1 -5.79,-2.34 q -5.82,-3.13 -5.81,-8.46 a 8.23,8.23 0 0 1 1.55,-4.93 10.18,10.18 0 0 1 4.48,-3.39 16.91,16.91 0 0 1 6.55,-1.22 15.4,15.4 0 0 1 6.52,1.33 10.42,10.42 0 0 1 4.44,3.74 9.8,9.8 0 0 1 1.58,5.48 h -7 a 4.57,4.57 0 0 0 -1.48,-3.64 6,6 0 0 0 -4.15,-1.3 6.45,6.45 0 0 0 -4,1.09 3.41,3.41 0 0 0 -1.43,2.87 3.28,3.28 0 0 0 1.67,2.79 19,19 0 0 0 4.94,2.11 q 6,1.8 8.74,4.47 a 8.91,8.91 0 0 1 2.74,6.66 8.23,8.23 0 0 1 -3.35,7 c -2.24,1.68 -5.24,2.52 -9,2.52 a 17.47,17.47 0 0 1 -7.18,-1.44 11.44,11.44 0 0 1 -4.93,-3.95 10.16,10.16 0 0 1 -1.7,-5.82 h 7.06 q 0,5.65 6.75,5.65 a 6.56,6.56 0 0 0 3.91,-1 3.31,3.31 0 0 0 1.36,-2.91 z"
     id="path18" />
  <path
     class="cls-1"
     d="M 27.8,28.5 H 17.34 v 28.43 h -7 V 28.5 H 0 v -5.67 h 27.8 z"
     id="path20" />
  <path
     class="cls-1"
     d="m 61.11,40.64 a 20.61,20.61 0 0 1 -1.78,8.84 13.4,13.4 0 0 1 -5.1,5.85 14.06,14.06 0 0 1 -7.6,2.07 14.22,14.22 0 0 1 -7.58,-2 13.58,13.58 0 0 1 -5.15,-5.83 19.87,19.87 0 0 1 -1.85,-8.7 v -1.69 a 20.48,20.48 0 0 1 1.81,-8.87 13.46,13.46 0 0 1 5.14,-5.88 15,15 0 0 1 15.16,0 13.44,13.44 0 0 1 5.13,5.88 20.42,20.42 0 0 1 1.82,8.85 z m -7.13,-1.55 c 0,-3.58 -0.64,-6.29 -1.92,-8.15 a 6.79,6.79 0 0 0 -10.94,0 q -1.92,2.76 -1.95,8.08 v 1.66 c 0,3.48 0.64,6.19 1.92,8.11 a 6.27,6.27 0 0 0 5.54,2.88 6.17,6.17 0 0 0 5.43,-2.78 q 1.9,-2.78 1.92,-8.09 z"
     id="path22" />
  <path
     class="cls-1"
     d="m 76.04,43.24 -3.66,3.94 v 9.75 h -7 v -34.1 h 7 V 38.3 l 3.14,-4.27 8.7,-11.23 h 8.65 l -12.12,15.17 12.47,19 h -8.37 z"
     id="path24" />
  <path
     class="cls-1"
     d="m 121.03,42.14 h -13.51 v 9.14 h 15.85 v 5.65 h -22.85 v -34.1 h 22.83 v 5.7 h -15.83 v 8.13 h 13.5 z"
     id="path26" />
  <path
     class="cls-1"
     d="m 158.52,56.93 h -7 L 137.84,34.48 v 22.45 h -7 v -34.1 h 7 L 151.52,45.3 V 22.83 h 7 z"
     id="path28" />
  <path
     class="cls-1"
     d="m 183.34,47.98 a 3.6,3.6 0 0 0 -1.41,-3.06 18.63,18.63 0 0 0 -5.06,-2.25 35.35,35.35 0 0 1 -5.79,-2.34 q -5.82,-3.13 -5.81,-8.46 a 8.23,8.23 0 0 1 1.55,-4.93 10.18,10.18 0 0 1 4.48,-3.39 16.91,16.91 0 0 1 6.55,-1.22 15.4,15.4 0 0 1 6.52,1.33 10.42,10.42 0 0 1 4.44,3.74 9.8,9.8 0 0 1 1.58,5.48 h -7 a 4.57,4.57 0 0 0 -1.48,-3.64 6,6 0 0 0 -4.15,-1.3 6.45,6.45 0 0 0 -4,1.09 3.41,3.41 0 0 0 -1.43,2.87 3.28,3.28 0 0 0 1.67,2.79 19,19 0 0 0 4.94,2.11 q 6,1.8 8.74,4.47 a 8.91,8.91 0 0 1 2.74,6.66 8.23,8.23 0 0 1 -3.35,7 c -2.24,1.68 -5.24,2.52 -9,2.52 a 17.47,17.47 0 0 1 -7.18,-1.44 11.44,11.44 0 0 1 -4.93,-3.95 10.16,10.16 0 0 1 -1.7,-5.82 h 7.06 q 0,5.65 6.75,5.65 a 6.56,6.56 0 0 0 3.91,-1 3.31,3.31 0 0 0 1.36,-2.91 z"
     id="path30" />
</svg>
