<?xml version="1.0" encoding="utf-8"?>
<!-- Generator: Adobe Illustrator 17.1.0, SVG Export Plug-In . SVG Version: 6.00 Build 0)  -->
<!DOCTYPE svg PUBLIC "-//W3C//DTD SVG 1.1//EN" "http://www.w3.org/Graphics/SVG/1.1/DTD/svg11.dtd">
<svg version="1.1" id="Layer_1" xmlns="http://www.w3.org/2000/svg" xmlns:xlink="http://www.w3.org/1999/xlink" x="0px" y="0px"
	 viewBox="0 0 75 75" enable-background="new 0 0 75 75" xml:space="preserve">
<g>
	<linearGradient id="SVGID_1_" gradientUnits="userSpaceOnUse" x1="37.2253" y1="70.2451" x2="37.2253" y2="4.9059">
		<stop  offset="0" style="stop-color:#2E6FAA"/>
		<stop  offset="1" style="stop-color:#73ABDE"/>
	</linearGradient>
	<path fill-rule="evenodd" clip-rule="evenodd" fill="url(#SVGID_1_)" d="M37.225,4.906c18.043,0,32.669,14.626,32.669,32.67
		s-14.626,32.67-32.669,32.67S4.556,55.619,4.556,37.576S19.182,4.906,37.225,4.906L37.225,4.906z"/>
	<linearGradient id="SVGID_2_" gradientUnits="userSpaceOnUse" x1="37.2253" y1="37.5684" x2="37.2253" y2="5.6432">
		<stop  offset="0" style="stop-color:#000000"/>
		<stop  offset="1" style="stop-color:#00FF9D"/>
	</linearGradient>
	<path opacity="0.75" fill="url(#SVGID_2_)" d="M5.357,35.55c0.501-8.011,3.957-15.221,9.29-20.554
		c5.779-5.779,13.762-9.353,22.579-9.353s16.801,3.574,22.579,9.353c5.333,5.333,8.788,12.544,9.29,20.554
		c0.158,2.516-3.676,2.774-3.835,0.239c-0.442-7.045-3.481-13.386-8.171-18.076c-5.083-5.083-12.106-8.227-19.863-8.227
		s-14.78,3.144-19.863,8.227c-4.689,4.69-7.729,11.031-8.171,18.076C9.032,38.324,5.199,38.066,5.357,35.55L5.357,35.55z"/>
	<path fill-rule="evenodd" clip-rule="evenodd" fill="#85EDED" d="M57.448,57.799c-0.683,0.683-1.483,1.059-2.054,1.019
		c-10.688,9.076-26.978,8.337-37.363-2.048C8.083,46.82,6.987,31.453,14.892,20.782c-0.499-0.908,0.124-2.609,1.527-4.012
		c1.402-1.402,3.102-2.025,4.011-1.529c0.974-0.722,1.987-1.368,3.032-1.94c0.125-0.565,0.766-1.222,1.676-1.646
		c0.972-0.453,1.95-0.501,2.437-0.168c9.659-3.317,20.955-0.995,28.843,6.894c10.385,10.385,11.125,26.675,2.049,37.363
		C58.507,56.316,58.131,57.116,57.448,57.799L57.448,57.799z"/>
	<linearGradient id="SVGID_3_" gradientUnits="userSpaceOnUse" x1="37.2253" y1="64.9282" x2="37.2253" y2="10.223">
		<stop  offset="0" style="stop-color:#84C4FF"/>
		<stop  offset="1" style="stop-color:#0C355C"/>
	</linearGradient>
	<path fill-rule="evenodd" clip-rule="evenodd" fill="url(#SVGID_3_)" d="M37.225,10.223c15.106,0,27.352,12.246,27.352,27.352
		S52.332,64.928,37.225,64.928c-15.107,0-27.352-12.246-27.352-27.353S22.119,10.223,37.225,10.223L37.225,10.223z"/>
	<radialGradient id="SVGID_4_" cx="37.2255" cy="37.5755" r="24.9211" gradientUnits="userSpaceOnUse">
		<stop  offset="0" style="stop-color:#412D73"/>
		<stop  offset="1" style="stop-color:#25094F"/>
	</radialGradient>
	<path fill-rule="evenodd" clip-rule="evenodd" fill="url(#SVGID_4_)" d="M37.225,12.654c13.764,0,24.921,11.158,24.921,24.921
		c0,13.764-11.157,24.921-24.921,24.921S12.305,51.339,12.305,37.576C12.305,23.812,23.462,12.654,37.225,12.654L37.225,12.654z"/>
	<linearGradient id="SVGID_5_" gradientUnits="userSpaceOnUse" x1="37.2253" y1="70.2451" x2="37.2253" y2="21.9652">
		<stop  offset="0" style="stop-color:#074675"/>
		<stop  offset="1" style="stop-color:#FFFFFF"/>
	</linearGradient>
	<path opacity="0.75" fill-rule="evenodd" clip-rule="evenodd" fill="url(#SVGID_5_)" d="M69.618,36.72
		c0,17.57-14.502,31.814-32.392,31.814S4.833,54.29,4.833,36.72c0-5.325,1.332-10.344,3.687-14.754
		c-2.527,4.638-3.964,9.956-3.964,15.61c0,18.043,14.626,32.67,32.669,32.67s32.669-14.626,32.669-32.67
		c0-5.654-1.436-10.972-3.964-15.61C68.286,26.375,69.618,31.394,69.618,36.72L69.618,36.72z"/>
</g>
<g>
	<linearGradient id="SVGID_6_" gradientUnits="userSpaceOnUse" x1="33.7945" y1="59.6949" x2="54.8191" y2="23.2792">
		<stop  offset="0" style="stop-color:#546578"/>
		<stop  offset="0.6394" style="stop-color:#8DA0B8"/>
		<stop  offset="1" style="stop-color:#546578"/>
	</linearGradient>
	<path fill-rule="evenodd" clip-rule="evenodd" fill="url(#SVGID_6_)" d="M51.011,21.541c6.807,5.17,8.122,16.119,2.759,25.409
		c-5.363,9.29-15.504,13.625-23.384,10.315c-2.041-0.858-3.884-1.782-6.054-3.035l10.512-18.208l10.512-18.208
		C47.526,19.069,49.248,20.202,51.011,21.541L51.011,21.541z"/>
	<radialGradient id="SVGID_7_" cx="41.491" cy="35.3831" r="19.7435" gradientUnits="userSpaceOnUse">
		<stop  offset="0" style="stop-color:#FFFFFF"/>
		<stop  offset="0.0863" style="stop-color:#F7F7F7"/>
		<stop  offset="0.2176" style="stop-color:#E2E2E2"/>
		<stop  offset="0.3776" style="stop-color:#C0C0C0"/>
		<stop  offset="0.5601" style="stop-color:#909090"/>
		<stop  offset="0.7617" style="stop-color:#525252"/>
		<stop  offset="0.9763" style="stop-color:#090909"/>
		<stop  offset="1" style="stop-color:#000000"/>
	</radialGradient>
	<path fill-rule="evenodd" clip-rule="evenodd" fill="url(#SVGID_7_)" d="M50.787,24.009c4.708,3.572,6.302,11.516,3.51,18.443
		c-2.791,6.926-8.977,10.378-14.244,8.192c-1.365-0.566-2.606-1.187-4.08-2.038l5.471-13.575l5.47-13.575
		C48.389,22.307,49.567,23.083,50.787,24.009L50.787,24.009z"/>
	<radialGradient id="SVGID_8_" cx="31.1378" cy="34.0381" r="28.6534" gradientUnits="userSpaceOnUse">
		<stop  offset="0.5149" style="stop-color:#FFFFFF"/>
		<stop  offset="0.7692" style="stop-color:#C3CEE0"/>
		<stop  offset="1" style="stop-color:#8A9FC2"/>
	</radialGradient>
	<path fill-rule="evenodd" clip-rule="evenodd" fill="url(#SVGID_8_)" d="M51.471,23.622c5.802,4.418,7.082,13.943,2.725,22.106
		c-4.052,7.59-11.641,11.5-18.052,9.773c-4.057,1.125-8.238,0.794-11.812-1.27c2.17,1.253,4.013,2.177,6.054,3.035
		c7.88,3.31,18.021-1.025,23.384-10.315c5.364-9.29,4.048-20.239-2.759-25.409c-1.756-1.334-3.471-2.464-5.629-3.711
		c2.142,1.243,3.852,2.986,5.104,5.064C50.816,23.131,51.142,23.372,51.471,23.622L51.471,23.622z"/>
	<path fill-rule="evenodd" clip-rule="evenodd" fill="#FFFFFF" d="M46.532,18.659c7.724,4.46,9.431,15.964,3.812,25.696
		c-5.619,9.732-16.436,14.006-24.16,9.547s-9.431-15.964-3.812-25.696C27.991,18.473,38.808,14.199,46.532,18.659L46.532,18.659z"/>
	<radialGradient id="SVGID_9_" cx="21.5382" cy="19.5866" r="39.2402" gradientUnits="userSpaceOnUse">
		<stop  offset="0" style="stop-color:#EBF6FF"/>
		<stop  offset="1" style="stop-color:#6F7F8C"/>
	</radialGradient>
	<path fill-rule="evenodd" clip-rule="evenodd" fill="url(#SVGID_9_)" d="M45.356,17.816c8.165,4.714,10.078,16.688,4.272,26.743
		s-17.131,14.386-25.296,9.672c-8.165-4.714-10.078-16.688-4.272-26.743S37.191,13.101,45.356,17.816L45.356,17.816z"/>
	<path fill-rule="evenodd" clip-rule="evenodd" fill="#FFFFFF" d="M36.932,50.73c-0.108,0.459-0.527,0.871-1.101,1.025
		c-0.495,0.133-0.986,0.041-1.319-0.206c-2.44,0.576-4.916,0.408-7.162-0.639c-6.48-3.023-8.583-12.229-4.695-20.563
		c2.123-4.55,5.592-7.899,9.36-9.51c0.031-0.537,0.49-1.05,1.151-1.227c0.61-0.164,1.214,0.007,1.535,0.388
		c0.867-0.173,1.737-0.251,2.598-0.228c0.187-0.306,0.614-0.468,1.06-0.375c0.366,0.077,0.651,0.306,0.768,0.582
		c0.785,0.159,1.555,0.408,2.3,0.756c6.48,3.023,8.583,12.229,4.695,20.562C44.031,45.776,40.634,49.092,36.932,50.73L36.932,50.73z
		"/>
	<radialGradient id="SVGID_10_" cx="21.8199" cy="19.2716" r="34.9987" gradientUnits="userSpaceOnUse">
		<stop  offset="0" style="stop-color:#EBF6FF"/>
		<stop  offset="1" style="stop-color:#647480"/>
	</radialGradient>
	<path fill-rule="evenodd" clip-rule="evenodd" fill="url(#SVGID_10_)" d="M42.564,21.524c6.106,3.525,7.381,12.749,2.848,20.601
		s-13.158,11.359-19.264,7.834c-6.106-3.525-7.381-12.748-2.848-20.6C27.833,21.507,36.458,17.999,42.564,21.524L42.564,21.524z"/>
	<radialGradient id="SVGID_11_" cx="41.7711" cy="39.1623" r="25.9377" gradientUnits="userSpaceOnUse">
		<stop  offset="0.5149" style="stop-color:#FFFFFF"/>
		<stop  offset="0.6955" style="stop-color:#C3CBDB"/>
		<stop  offset="1" style="stop-color:#566D99"/>
	</radialGradient>
	<path opacity="0.5" fill-rule="evenodd" clip-rule="evenodd" fill="url(#SVGID_11_)" d="M26.629,32.468
		c4.292-7.434,12.458-10.755,18.239-7.417c0.829,0.479,1.564,1.069,2.203,1.75c-0.921-2.23-2.436-4.081-4.507-5.276
		c-6.106-3.525-14.731-0.018-19.264,7.834c-4.534,7.852-3.259,17.075,2.848,20.6c0.442,0.255,0.898,0.474,1.364,0.656
		C23.339,46.641,22.831,39.047,26.629,32.468L26.629,32.468z"/>
	<linearGradient id="SVGID_12_" gradientUnits="userSpaceOnUse" x1="21.1227" y1="47.0581" x2="37.291" y2="19.0538">
		<stop  offset="0" style="stop-color:#8DA0B8"/>
		<stop  offset="0.9963" style="stop-color:#546578"/>
	</linearGradient>
	<path fill-rule="evenodd" clip-rule="evenodd" fill="url(#SVGID_12_)" d="M25.313,30.521c4.149-7.187,11.726-10.734,17.661-8.581
		c0.189,0.069,0.377,0.143,0.562,0.223c-0.16-0.119-0.324-0.234-0.493-0.344c-0.156-0.103-0.317-0.201-0.48-0.295
		c-6.106-3.525-14.731-0.018-19.264,7.834c-4.534,7.852-3.259,17.075,2.848,20.6c0.164,0.094,0.329,0.184,0.496,0.268
		c0.179,0.091,0.361,0.176,0.544,0.255c-0.162-0.121-0.32-0.246-0.475-0.376C21.88,46.043,21.164,37.708,25.313,30.521
		L25.313,30.521z"/>
	<radialGradient id="SVGID_13_" cx="42.232" cy="40.2581" r="25.1449" gradientUnits="userSpaceOnUse">
		<stop  offset="0.5149" style="stop-color:#FFFFFF"/>
		<stop  offset="0.8163" style="stop-color:#C3CDD8"/>
		<stop  offset="1" style="stop-color:#9DACBF"/>
	</radialGradient>
	<path fill-rule="evenodd" clip-rule="evenodd" fill="url(#SVGID_13_)" d="M38.707,21.333c1.468-0.079,2.911,0.115,4.267,0.608
		c0.189,0.069,0.377,0.143,0.562,0.223c-0.16-0.119-0.324-0.234-0.493-0.344c-0.156-0.103-0.317-0.201-0.48-0.295
		c-6.106-3.525-14.731-0.018-19.264,7.834c-4.534,7.852-3.259,17.075,2.848,20.6c0.164,0.094,0.329,0.184,0.496,0.268
		c0.179,0.091,0.361,0.176,0.544,0.255c-0.162-0.121-0.32-0.246-0.475-0.376c-0.744-0.626-1.391-1.353-1.937-2.162
		c-4.502-3.778-5.248-11.564-1.492-18.293C26.863,23.241,33.347,19.908,38.707,21.333L38.707,21.333z"/>
	<radialGradient id="SVGID_14_" cx="15.857" cy="13.935" r="33.4358" gradientUnits="userSpaceOnUse">
		<stop  offset="0" style="stop-color:#FFFFFF"/>
		<stop  offset="0.1102" style="stop-color:#FAFAFA"/>
		<stop  offset="0.2341" style="stop-color:#EDEDED"/>
		<stop  offset="0.3647" style="stop-color:#D6D6D6"/>
		<stop  offset="0.4999" style="stop-color:#B7B7B7"/>
		<stop  offset="0.6388" style="stop-color:#8E8E8E"/>
		<stop  offset="0.7807" style="stop-color:#5C5C5C"/>
		<stop  offset="0.9223" style="stop-color:#232323"/>
		<stop  offset="1" style="stop-color:#000000"/>
	</radialGradient>
	<path fill-rule="evenodd" clip-rule="evenodd" fill="url(#SVGID_14_)" d="M43.919,24.939c-10.82-4.92-20.927,9.182-19.439,18.285
		C30.466,40.99,40.421,36.086,43.919,24.939L43.919,24.939z"/>
</g>
</svg>
